<svg xmlns="http://www.w3.org/2000/svg" xmlns:xlink="http://www.w3.org/1999/xlink" width="124.924" height="124.925" viewBox="0 0 124.924 124.925">
  <defs>
    <linearGradient id="linear-gradient" x1="0.649" y1="0.052" x2="0.374" y2="0.971" gradientUnits="objectBoundingBox">
      <stop offset="0" stop-color="#1f86fd"/>
      <stop offset="1" stop-color="#0ce5aa"/>
    </linearGradient>
  </defs>
  <path id="ux" d="M-6255-2929.5a51,51,0,0,1,51-51,51,51,0,0,1,51,51,51,51,0,0,1-51,51A51,51,0,0,1-6255-2929.5Zm33.1-42.386a45.837,45.837,0,0,0-14.623,9.861,45.821,45.821,0,0,0-9.86,14.623,45.676,45.676,0,0,0-3.613,17.9,45.692,45.692,0,0,0,3.613,17.905,45.837,45.837,0,0,0,9.86,14.623,45.837,45.837,0,0,0,14.623,9.86,45.681,45.681,0,0,0,17.9,3.614,45.684,45.684,0,0,0,17.9-3.614,45.819,45.819,0,0,0,14.623-9.86,45.809,45.809,0,0,0,9.861-14.623A45.717,45.717,0,0,0-6158-2929.5a45.7,45.7,0,0,0-3.612-17.9,45.793,45.793,0,0,0-9.861-14.623,45.819,45.819,0,0,0-14.623-9.861,45.708,45.708,0,0,0-17.9-3.612A45.706,45.706,0,0,0-6221.9-2971.888Zm7.775,69.386a1,1,0,0,1-1-1,1,1,0,0,1,1-1h4a1,1,0,0,1,1,1,1,1,0,0,1-1,1Zm-8,0a1,1,0,0,1-1-1,1,1,0,0,1,1-1h4a1,1,0,0,1,1,1,1,1,0,0,1-1,1Zm-8,0a1,1,0,0,1-1-1,1,1,0,0,1,1-1h4a1,1,0,0,1,1,1,1,1,0,0,1-1,1Zm4.293-8.094a12.038,12.038,0,0,1-4.089-2.678,12.582,12.582,0,0,1-2.724-4.113,13.619,13.619,0,0,1-.988-5.289v-21.1h4.512v20.4a13.041,13.041,0,0,0,.422,3.218,9.318,9.318,0,0,0,1.41,3.078,7.664,7.664,0,0,0,2.585,2.3,8,8,0,0,0,3.948.893,8,8,0,0,0,3.948-.893,7.678,7.678,0,0,0,2.585-2.3,9.308,9.308,0,0,0,1.41-3.078,13.111,13.111,0,0,0,.422-3.218v-20.4h4.513v21.1a13.655,13.655,0,0,1-.987,5.289,12.568,12.568,0,0,1-2.727,4.113,12.009,12.009,0,0,1-4.089,2.678,13.506,13.506,0,0,1-5.075.94A13.521,13.521,0,0,1-6225.834-2910.595Zm45.309.094-9.541-14.428-9.588,14.428h-5.593l12.08-17.484-11.186-15.791h5.781l8.646,12.783,8.556-12.783h5.64l-11.092,15.745,12.221,17.53Z" transform="translate(4497.854 -5171.929) rotate(-75)" fill="url(#linear-gradient)"/>
</svg>
