<svg xmlns="http://www.w3.org/2000/svg" xmlns:xlink="http://www.w3.org/1999/xlink" width="124.924" height="124.924" viewBox="0 0 124.924 124.924">
  <defs>
    <linearGradient id="linear-gradient" x1="0.5" x2="0.5" y2="1" gradientUnits="objectBoundingBox">
      <stop offset="0" stop-color="#f84b87"/>
      <stop offset="1" stop-color="#1f86fd"/>
    </linearGradient>
  </defs>
  <path id="ui" d="M-6103.257-2835.5a51,51,0,0,1,51-51,51,51,0,0,1,51,51,51,51,0,0,1-51,51A51,51,0,0,1-6103.257-2835.5Zm33.1-42.387a45.827,45.827,0,0,0-14.622,9.861,45.849,45.849,0,0,0-9.861,14.622,45.715,45.715,0,0,0-3.613,17.9,45.7,45.7,0,0,0,3.613,17.9,45.846,45.846,0,0,0,9.861,14.622,45.827,45.827,0,0,0,14.622,9.861,45.714,45.714,0,0,0,17.9,3.614,45.711,45.711,0,0,0,17.9-3.614,45.817,45.817,0,0,0,14.624-9.861,45.819,45.819,0,0,0,9.86-14.622,45.709,45.709,0,0,0,3.611-17.9,45.722,45.722,0,0,0-3.611-17.9,45.822,45.822,0,0,0-9.86-14.622,45.817,45.817,0,0,0-14.624-9.861,45.71,45.71,0,0,0-17.9-3.612A45.712,45.712,0,0,0-6070.162-2877.887Zm18.031,69.387a1,1,0,0,1-1-1,1,1,0,0,1,1-1h4a1,1,0,0,1,1,1,1,1,0,0,1-1,1Zm-8,0a1,1,0,0,1-1-1,1,1,0,0,1,1-1h4a1,1,0,0,1,1,1,1,1,0,0,1-1,1Zm-8,0a1,1,0,0,1-1-1,1,1,0,0,1,1-1h4a1,1,0,0,1,1,1,1,1,0,0,1-1,1Zm4.341-7.094a12.041,12.041,0,0,1-4.09-2.679,12.6,12.6,0,0,1-2.725-4.113,13.63,13.63,0,0,1-.986-5.288v-21.1h4.511v20.4a13.171,13.171,0,0,0,.423,3.22,9.325,9.325,0,0,0,1.411,3.077,7.661,7.661,0,0,0,2.585,2.3,7.989,7.989,0,0,0,3.947.893,7.994,7.994,0,0,0,3.949-.893,7.66,7.66,0,0,0,2.584-2.3,9.3,9.3,0,0,0,1.411-3.077,13.1,13.1,0,0,0,.422-3.22v-20.4h4.513v21.1a13.639,13.639,0,0,1-.988,5.288,12.556,12.556,0,0,1-2.725,4.113,12.04,12.04,0,0,1-4.088,2.679,13.557,13.557,0,0,1-5.078.941A13.543,13.543,0,0,1-6063.79-2815.594Zm24.958.095v-33.276h4.512v33.276Z" transform="translate(4367.784 -5049.688) rotate(-75)" fill="url(#linear-gradient)"/>
</svg>
